<mxfile host="www.draw.io" modified="2020-01-06T12:29:14.580Z" agent="Mozilla/5.0 (Windows NT 10.0; Win64; x64) AppleWebKit/537.36 (KHTML, like Gecko) Chrome/76.0.3809.132 Safari/537.36" etag="r2mldsXsEhb-CBGU57Kh" version="12.4.8" type="github">
  <diagram id="6JcPPssN7_dnTPQ_PfCE" name="Page-1">
    <mxGraphModel dx="1422" dy="713" grid="1" gridSize="10" guides="1" tooltips="1" connect="1" arrows="1" fold="1" page="1" pageScale="1" pageWidth="827" pageHeight="1169" math="0" shadow="0">
      <root>
        <mxCell id="0"/>
        <mxCell id="1" parent="0"/>
        <mxCell id="pz9_DIsgpmCVncD7zkbO-13" value="&lt;div&gt;&lt;font style=&quot;font-size: 32px&quot;&gt;一个计时周期&lt;br&gt;&lt;/font&gt;&lt;font style=&quot;font-size: 12px&quot;&gt;（任务开始----任务结束）&lt;/font&gt;&lt;/div&gt;" style="whiteSpace=wrap;html=1;aspect=fixed;align=center;" vertex="1" parent="1">
          <mxGeometry x="60" y="130" width="730" height="730" as="geometry"/>
        </mxCell>
        <mxCell id="pz9_DIsgpmCVncD7zkbO-1" value="Pad端（根据task id从SQLite中查询对应的设备列表，将从机器人端获取的设备列表做去重插入）" style="whiteSpace=wrap;html=1;aspect=fixed;" vertex="1" parent="1">
          <mxGeometry x="520" y="670" width="160" height="160" as="geometry"/>
        </mxCell>
        <mxCell id="pz9_DIsgpmCVncD7zkbO-2" value="机器人端&amp;nbsp; &amp;nbsp; &amp;nbsp; &amp;nbsp; &amp;nbsp; &amp;nbsp; &amp;nbsp; &amp;nbsp; &amp;nbsp; &amp;nbsp; &amp;nbsp;&amp;nbsp;&lt;br&gt;&amp;nbsp; &amp;nbsp; &amp;nbsp; &amp;nbsp; &amp;nbsp; &amp;nbsp; &amp;nbsp; &amp;nbsp; &amp;nbsp; &amp;nbsp;&lt;br&gt;（有设备连接&amp;nbsp; &amp;nbsp; &amp;nbsp; &amp;nbsp; &amp;nbsp; &amp;nbsp; &amp;nbsp; &amp;nbsp; &amp;nbsp; &amp;nbsp; &amp;nbsp; &amp;nbsp; &amp;nbsp;&lt;br&gt;就add进list）&amp;nbsp; &amp;nbsp; &amp;nbsp; &amp;nbsp; &amp;nbsp; &amp;nbsp; &amp;nbsp; &amp;nbsp; &amp;nbsp; &amp;nbsp; &amp;nbsp;" style="whiteSpace=wrap;html=1;aspect=fixed;" vertex="1" parent="1">
          <mxGeometry x="520" y="180" width="160" height="160" as="geometry"/>
        </mxCell>
        <mxCell id="pz9_DIsgpmCVncD7zkbO-3" value="小程序端A" style="whiteSpace=wrap;html=1;aspect=fixed;" vertex="1" parent="1">
          <mxGeometry x="80" y="460" width="50" height="50" as="geometry"/>
        </mxCell>
        <mxCell id="pz9_DIsgpmCVncD7zkbO-4" value="小程序端B" style="whiteSpace=wrap;html=1;aspect=fixed;" vertex="1" parent="1">
          <mxGeometry x="80" y="340" width="50" height="50" as="geometry"/>
        </mxCell>
        <mxCell id="pz9_DIsgpmCVncD7zkbO-5" value="小程序端C.D" style="whiteSpace=wrap;html=1;aspect=fixed;" vertex="1" parent="1">
          <mxGeometry x="80" y="220" width="50" height="50" as="geometry"/>
        </mxCell>
        <mxCell id="pz9_DIsgpmCVncD7zkbO-6" value="" style="endArrow=classic;html=1;exitX=1;exitY=0.5;exitDx=0;exitDy=0;entryX=0;entryY=0.625;entryDx=0;entryDy=0;entryPerimeter=0;" edge="1" parent="1" source="pz9_DIsgpmCVncD7zkbO-3" target="pz9_DIsgpmCVncD7zkbO-2">
          <mxGeometry width="50" height="50" relative="1" as="geometry">
            <mxPoint x="80" y="610" as="sourcePoint"/>
            <mxPoint x="130" y="560" as="targetPoint"/>
          </mxGeometry>
        </mxCell>
        <mxCell id="pz9_DIsgpmCVncD7zkbO-7" value="connect" style="text;html=1;align=center;verticalAlign=middle;resizable=0;points=[];labelBackgroundColor=#ffffff;" vertex="1" connectable="0" parent="pz9_DIsgpmCVncD7zkbO-6">
          <mxGeometry x="-0.0622" relative="1" as="geometry">
            <mxPoint as="offset"/>
          </mxGeometry>
        </mxCell>
        <mxCell id="pz9_DIsgpmCVncD7zkbO-8" value="设备列表&lt;br&gt;&lt;br&gt;设备A&lt;br&gt;设备B&lt;br&gt;设备C&lt;br&gt;。&lt;br&gt;。" style="rounded=0;whiteSpace=wrap;html=1;" vertex="1" parent="1">
          <mxGeometry x="610" y="200" width="60" height="120" as="geometry"/>
        </mxCell>
        <mxCell id="pz9_DIsgpmCVncD7zkbO-9" value="" style="endArrow=classic;html=1;exitX=1;exitY=0.5;exitDx=0;exitDy=0;entryX=0;entryY=0.5;entryDx=0;entryDy=0;" edge="1" parent="1" source="pz9_DIsgpmCVncD7zkbO-4" target="pz9_DIsgpmCVncD7zkbO-2">
          <mxGeometry width="50" height="50" relative="1" as="geometry">
            <mxPoint x="80" y="790" as="sourcePoint"/>
            <mxPoint x="130" y="740" as="targetPoint"/>
          </mxGeometry>
        </mxCell>
        <mxCell id="pz9_DIsgpmCVncD7zkbO-10" value="connect" style="text;html=1;align=center;verticalAlign=middle;resizable=0;points=[];labelBackgroundColor=#ffffff;" vertex="1" connectable="0" parent="pz9_DIsgpmCVncD7zkbO-9">
          <mxGeometry x="-0.2517" relative="1" as="geometry">
            <mxPoint as="offset"/>
          </mxGeometry>
        </mxCell>
        <mxCell id="pz9_DIsgpmCVncD7zkbO-11" value="" style="endArrow=classic;html=1;exitX=1;exitY=0.5;exitDx=0;exitDy=0;" edge="1" parent="1" source="pz9_DIsgpmCVncD7zkbO-5">
          <mxGeometry width="50" height="50" relative="1" as="geometry">
            <mxPoint x="80" y="790" as="sourcePoint"/>
            <mxPoint x="510" y="245" as="targetPoint"/>
          </mxGeometry>
        </mxCell>
        <mxCell id="pz9_DIsgpmCVncD7zkbO-12" value="connect" style="text;html=1;align=center;verticalAlign=middle;resizable=0;points=[];labelBackgroundColor=#ffffff;" vertex="1" connectable="0" parent="pz9_DIsgpmCVncD7zkbO-11">
          <mxGeometry x="-0.2316" y="1" relative="1" as="geometry">
            <mxPoint as="offset"/>
          </mxGeometry>
        </mxCell>
        <mxCell id="pz9_DIsgpmCVncD7zkbO-14" value="" style="endArrow=classic;html=1;exitX=0.25;exitY=0;exitDx=0;exitDy=0;entryX=0.25;entryY=1;entryDx=0;entryDy=0;" edge="1" parent="1" source="pz9_DIsgpmCVncD7zkbO-1" target="pz9_DIsgpmCVncD7zkbO-2">
          <mxGeometry width="50" height="50" relative="1" as="geometry">
            <mxPoint x="60" y="930" as="sourcePoint"/>
            <mxPoint x="570" y="350" as="targetPoint"/>
          </mxGeometry>
        </mxCell>
        <mxCell id="pz9_DIsgpmCVncD7zkbO-15" value="通过Polling形式获取设备列表" style="text;html=1;align=center;verticalAlign=middle;resizable=0;points=[];labelBackgroundColor=#ffffff;rotation=-90;" vertex="1" connectable="0" parent="pz9_DIsgpmCVncD7zkbO-14">
          <mxGeometry x="0.0909" y="1" relative="1" as="geometry">
            <mxPoint y="20" as="offset"/>
          </mxGeometry>
        </mxCell>
        <mxCell id="pz9_DIsgpmCVncD7zkbO-18" value="" style="endArrow=classic;html=1;entryX=0.75;entryY=0;entryDx=0;entryDy=0;exitX=0.75;exitY=1;exitDx=0;exitDy=0;" edge="1" parent="1" source="pz9_DIsgpmCVncD7zkbO-2" target="pz9_DIsgpmCVncD7zkbO-1">
          <mxGeometry width="50" height="50" relative="1" as="geometry">
            <mxPoint x="60" y="930" as="sourcePoint"/>
            <mxPoint x="110" y="880" as="targetPoint"/>
          </mxGeometry>
        </mxCell>
        <mxCell id="pz9_DIsgpmCVncD7zkbO-19" value="返回设备列表" style="text;html=1;align=center;verticalAlign=middle;resizable=0;points=[];labelBackgroundColor=#ffffff;rotation=-91;" vertex="1" connectable="0" parent="pz9_DIsgpmCVncD7zkbO-18">
          <mxGeometry x="-0.0848" y="3" relative="1" as="geometry">
            <mxPoint as="offset"/>
          </mxGeometry>
        </mxCell>
        <mxCell id="pz9_DIsgpmCVncD7zkbO-20" value="" style="endArrow=classic;html=1;exitX=0.5;exitY=0;exitDx=0;exitDy=0;entryX=0.5;entryY=1;entryDx=0;entryDy=0;" edge="1" parent="1" source="pz9_DIsgpmCVncD7zkbO-1" target="pz9_DIsgpmCVncD7zkbO-2">
          <mxGeometry width="50" height="50" relative="1" as="geometry">
            <mxPoint x="60" y="930" as="sourcePoint"/>
            <mxPoint x="110" y="880" as="targetPoint"/>
          </mxGeometry>
        </mxCell>
        <mxCell id="pz9_DIsgpmCVncD7zkbO-21" value="项目开始/结束，clear请求情况设备列表" style="text;html=1;align=center;verticalAlign=middle;resizable=0;points=[];labelBackgroundColor=#ffffff;rotation=-90;" vertex="1" connectable="0" parent="pz9_DIsgpmCVncD7zkbO-20">
          <mxGeometry x="0.0727" relative="1" as="geometry">
            <mxPoint as="offset"/>
          </mxGeometry>
        </mxCell>
      </root>
    </mxGraphModel>
  </diagram>
</mxfile>
